<svg xmlns="http://www.w3.org/2000/svg" width="512" height="512" viewBox="0 0 512 512" data-svgdocument="" id="_teK_VZwtbA-UrJTUGzoiZ" class="fl-svgdocument" x="0" y="0" overflow="hidden" data-bbox="68.61419621902397 48 374.771607561952 416.00000000000006" style=""><defs id="_IqaTpWiOBCB7_V7kwPTct" transform="matrix(0.7360832691192627, 0, 0, 0.7360832691192627, 34.588661193847656, 18.122547149658203)"><linearGradient id="o_f6nkkg15g_3" x1="0" y1="0.5" x2="1" y2="0.5"><stop id="_7l0aeuTOGDOceKfHRdUpc" offset="0%" stop-color="rgb(1, 35, 63)"></stop><stop id="_8noqUQWZYBtrTaAIF8Pn3" offset="22.51%" stop-color="rgb(23, 97, 160)"></stop><stop id="_cmO3vR1C7vm2HnzvDdfMY" offset="50.47%" stop-color="rgb(23, 97, 160)"></stop><stop id="_oPDluZI_cc7zTZw2G2TPC" offset="50.47%" stop-color="rgb(35, 127, 207)"></stop><stop id="_vjOrbivIWaIKVLGywgCmU" offset="100%" stop-color="rgb(35, 127, 207)"></stop></linearGradient></defs><g id="_ZKpUg3KsQyVy-L_19ajf8" transform="matrix(0.86763596534729, 0, 0, 0.86763596534729, 25.44731903076172, 31.25390625)"><path id="_odpXk4PtDFVx5oCes0mle" d="M165.494 17.985C136.127 19.907 88.372 0.694 88.372 0.694S40.615 19.907 11.248 17.985  c0 0-21.407 117.195 77.124 158.089C186.902 135.18 165.494 17.985 165.494 17.985z" fill="#000000" transform="matrix(2.7308177947998047, 0, 0, 2.7308177947998047, 24.399686813354492, 17.405641555786133)"></path><path id="_dvCQSEieEFT5ATpD2S-Ae" d="M165.494 17.985C136.127 19.907 88.372 0.694 88.372 0.694S40.615 19.907 11.248 17.985  c0 0-21.407 117.195 77.124 158.089C186.902 135.18 165.494 17.985 165.494 17.985z" fill="url(#o_f6nkkg15g_3)" transform="matrix(2.5797104835510254, 0, 0, 2.5797104835510254, 38.53378677368164, 30.73161506652832)"></path><path id="_DIxBROoJNIat5ClJJi-jH" fill="#ffffff" transform="matrix(1.3108688592910767, 0, 0, 1.3108688592910767, 151.89190673828125, 258.6492614746094)" data-type="circle" data-cx="88.385" data-cy="88.385" data-r="88.385" d="M88.385,88.385m-88.385,0a88.385,88.385 0 1, 0 176.77,0a88.385,88.385 0 1, 0 -176.77,0"></path><path id="_1tzOvv8GRUvM9R0cowe3y" d="M17.283 87.978c10.134 8.712 23.055 12.955 36.382 11.949c13.325-1.008 25.463-7.143 34.175-17.278    c8.712-10.135 12.955-23.057 11.948-36.383c-1.007-13.326-7.143-25.463-17.277-34.174C72.376 3.378 59.455-0.865 46.128 0.142    C32.801 1.148 20.664 7.285 11.953 17.419C3.241 27.554-1.002 40.475 0.003 53.802C1.01 67.129 7.146 79.266 17.283 87.978z     M77.856 79.318c-2.666 2.723-5.328 4.644-6.967 5.709c-0.407 0.114-3.503 0.869-10.042-0.377    c-4.569-0.871-7.344-2.037-8.699-2.727L48.889 67l14.904-16.394l14.879 2.821c0.816 1.912 2.266 5.51 3.033 8.641    c0.874 3.565 1.421 8.596 1.614 10.576C82.285 74.183 80.46 76.659 77.856 79.318z M47.068 65.489    c-1.623-0.188-4.525-0.604-8.629-1.478c-4.001-0.853-6.89-1.823-8.555-2.462c-0.638-1.358-2.748-6.028-4.05-11.02    c-1.086-4.166-1.759-8.849-2.063-11.286c1.089-1.533 3.002-4.029 5.632-6.716c2.828-2.888 4.999-4.771 6.15-5.721    c-0.422-0.016-1.23 0.306-0.87 0.317c0.045 0.001 6.349 0.295 11.561 1.536c3.634 0.865 8.2 2.419 10.704 3.309l5.005 17.147    L47.068 65.489z M57.961 29.82c-2.487-0.89-7.275-2.532-11.17-3.458c-5.455-1.297-10.08-1.465-10.275-1.472    c-0.043-0.001-0.527-0.056-0.57-0.052c-0.098 0.007 0.116 0.084 0.162 0.111l-3.375-10.259c1.059-1.418 3.456-4.355 6.224-5.97    c3.573-2.084 9.58-3.729 10.369-3.939c1.771 0.08 4.988 0.359 9.004 1.297c3.533 0.827 6.046 1.753 7.556 2.4    c0.651 1.261 2.367 4.644 3.446 7.291c0.812 1.988 1.376 4.96 1.688 6.941L57.961 29.82z M37.767 6.678    c-3.084 1.799-5.659 4.908-6.86 6.505c-1.651-0.022-4.685 0.24-8.464 1.925c-1.326 0.592-2.456 1.188-3.414 1.757    c5.624-5.254 12.419-8.942 19.846-10.788C38.491 6.272 38.119 6.473 37.767 6.678z M6.699 43.827    c1.078-2.468 3.203-5.367 4.545-7.08L21.53 40.38c0.348 2.629 1.001 6.854 2.018 10.748c1.249 4.786 3.162 9.186 3.996 10.995    l-6.298 12.031c-1.283-0.223-3.371-0.711-6.672-1.764c-3.226-1.03-4.65-1.765-5.259-2.16c-2.574-5.174-4.15-10.849-4.597-16.784    c-0.096-1.268-0.136-2.531-0.127-3.787C5.215 47.694 5.971 45.493 6.699 43.827z M5.48 40.999    c1.158-5.739 3.43-11.201 6.728-16.121c-0.353 0.876-0.698 1.857-0.994 2.929c-0.711 2.578-1.001 4.994-1.119 6.588    C9.103 35.61 6.998 38.295 5.48 40.999z M11.265 73.743c0.736 0.28 1.587 0.579 2.59 0.898c4.045 1.29 6.473 1.807 7.921 1.979    c1.041 1.464 2.802 3.762 4.968 5.88c2.505 2.452 5.598 4.271 7.187 5.122c-0.082 0.16-0.129 0.34-0.129 0.532l-0.022 4.247    c-4.839-1.845-9.373-4.533-13.417-8.01C16.745 81.284 13.694 77.691 11.265 73.743z M36.139 93.225l0.027-5.037    c1.271-0.056 3.615-0.354 7.258-1.528c3.46-1.114 5.937-2.115 7.405-2.757c1.477 0.784 4.514 2.104 9.578 3.07    c3.21 0.612 6.055 0.854 8.45 0.717c0.224-0.013 0.431-0.028 0.627-0.046l0.404 3.072c-5.118 2.515-10.721 4.055-16.579 4.497    C47.414 95.659 41.608 94.967 36.139 93.225z M90.034 71.083c-0.248 0.014-0.492 0.025-0.722 0.034    c-1.49 0.051-2.854 0.021-3.774-0.017c-0.266-2.455-0.776-6.49-1.538-9.597c-0.819-3.346-2.328-7.081-3.172-9.05    c0.766-1.331 1.978-3.637 2.978-6.429c1.104-3.078 1.806-6.337 2.135-8.055l7.551-0.32c0.817 2.898 1.352 5.9 1.584 8.971    C95.725 55.223 93.958 63.635 90.034 71.083z M92.763 35.315l-7.276 0.31c-0.989-1.581-3.017-4.583-5.729-7.351    c-2.536-2.589-4.941-4.438-6.32-5.418c-0.308-2.058-0.936-5.578-1.915-7.981c-0.8-1.96-1.905-4.25-2.721-5.879    c0.076-0.015 0.165-0.029 0.246-0.044c3.705 1.734 7.196 3.985 10.383 6.723C85.638 21.011 90.186 27.767 92.763 35.315z" fill="#000000" transform="matrix(2.491365909576416, 0, 0, 2.491365909576416, 143.5181121826172, 249.44790649414062)"></path></g><path id="_N82mIQK9gEXvMS-WGJB3n" fill="#ffffff" transform="matrix(0.6109329462051392, 0, 0, 0.6109329462051392, 254.89878845214844, 171.3843994140625)" text="Footballer" text-anchor="middle" font-size="100" letter-spacing="0" side="left" offset="0.5" dx="0" dy="0" space="preserve" href="" font-family="Allerta Stencil" font-scale="contain" x="0" y="0" data-fl-textpath="" d="M-254.88 0L-254.88-71.97L-242.97-71.97L-242.97 0L-254.88 0ZM-212.89-40.43L-212.89-32.42L-238.96-32.42L-238.96-40.43L-212.89-40.43ZM-238.96-71.97L-209.86-71.97L-209.86-63.09L-238.96-63.09L-238.96-71.97ZM-172.165-46.19L-172.165-55.37Q-166.795-55.08 -162.405-52.78Q-158.005-50.49 -155.025-46.73Q-152.055-42.97 -150.395-37.99Q-148.735-33.01 -148.735-27.34L-148.735-27.34Q-148.735-21.68 -150.435-16.75Q-152.145-11.82 -155.175-8.15Q-158.205-4.49 -162.595-2.25Q-166.995 0 -172.165 0.39L-172.165 0.39L-172.165-8.98Q-167.285-10.06 -164.205-15.14Q-161.135-20.21 -161.135-27.34L-161.135-27.34Q-161.135-30.96 -161.865-34.13Q-162.595-37.3 -164.065-39.84Q-165.525-42.38 -167.575-44.04Q-169.625-45.7 -172.165-46.19L-172.165-46.19ZM-199.415-27.54L-199.415-27.54Q-199.415-33.2 -197.755-38.09Q-196.095-42.97 -193.015-46.63Q-189.945-50.29 -185.645-52.54Q-181.345-54.79 -176.175-55.27L-176.175-55.27L-176.175-46.19Q-181.055-45.12 -183.985-40.04Q-186.915-34.96 -186.915-27.83L-186.915-27.83Q-186.915-24.22 -186.185-21Q-185.445-17.77 -184.085-15.23Q-182.715-12.7 -180.715-11.04Q-178.715-9.38 -176.175-8.98L-176.175-8.98L-176.175 0.39Q-181.545 0 -185.835-2.29Q-190.135-4.59 -193.165-8.3Q-196.195-12.01 -197.805-16.99Q-199.415-21.97 -199.415-27.54ZM-107.517-46.19L-107.517-55.37Q-102.147-55.08 -97.757-52.78Q-93.357-50.49 -90.377-46.73Q-87.407-42.97 -85.747-37.99Q-84.087-33.01 -84.087-27.34L-84.087-27.34Q-84.087-21.68 -85.787-16.75Q-87.497-11.82 -90.527-8.15Q-93.557-4.49 -97.947-2.25Q-102.347 0 -107.517 0.39L-107.517 0.39L-107.517-8.98Q-102.637-10.06 -99.557-15.14Q-96.487-20.21 -96.487-27.34L-96.487-27.34Q-96.487-30.96 -97.217-34.13Q-97.947-37.3 -99.417-39.84Q-100.877-42.38 -102.927-44.04Q-104.977-45.7 -107.517-46.19L-107.517-46.19ZM-134.767-27.54L-134.767-27.54Q-134.767-33.2 -133.107-38.09Q-131.447-42.97 -128.367-46.63Q-125.297-50.29 -120.997-52.54Q-116.697-54.79 -111.527-55.27L-111.527-55.27L-111.527-46.19Q-116.407-45.12 -119.337-40.04Q-122.267-34.96 -122.267-27.83L-122.267-27.83Q-122.267-24.22 -121.537-21Q-120.797-17.77 -119.437-15.23Q-118.067-12.7 -116.067-11.04Q-114.067-9.38 -111.527-8.98L-111.527-8.98L-111.527 0.39Q-116.897 0 -121.187-2.29Q-125.487-4.59 -128.517-8.3Q-131.547-12.01 -133.157-16.99Q-134.767-21.97 -134.767-27.54ZM-53.028-47.07L-53.028-16.7Q-53.028-13.38 -52.148-11.52Q-51.268-9.67 -49.658-8.69Q-48.048-7.71 -46.048-7.47Q-44.038-7.23 -41.798-7.23L-41.798-7.23L-41.798 0Q-43.068 0.2 -44.338 0.29L-44.338 0.29Q-45.408 0.39 -46.928 0.44Q-48.438 0.49 -49.898 0.49L-49.898 0.49Q-51.368 0.49 -52.878 0.39Q-54.398 0.29 -55.468 0.1L-55.468 0.1Q-58.788-0.49 -60.648-2.78Q-62.498-5.08 -63.428-7.86Q-64.358-10.64 -64.598-13.28Q-64.848-15.92 -64.848-17.38L-64.848-17.38L-64.848-47.07L-72.068-47.07L-72.068-55.08L-64.848-55.08L-64.848-70.7L-53.028-70.7L-53.028-55.08L-44.238-55.08L-44.238-47.07L-53.028-47.07ZM-27.928 0L-27.928-75.88L-16.118-75.88L-16.118-6.54Q-16.208-5.18 -16.408-3.42Q-16.598-1.66 -16.698 0L-16.698 0L-27.928 0ZM 20.212-38.38L 20.212-38.38Q 21.382-33.89  21.382-28.52L 21.382-28.52Q 21.382-22.95  20.072-17.68Q 18.752-12.4  16.062-8.35Q 13.382-4.3  9.322-1.9Q 5.272 0.49 -0.198 0.49L-0.198 0.49Q-3.618 0.49 -6.738-0.29Q-9.868-1.07 -12.108-2.44L-12.108-2.44L-12.108-12.6Q-10.648-10.94 -8.638-9.86Q-6.638-8.79 -4.198-8.79L-4.198-8.79Q-1.268-8.79  1.122-10.25Q 3.512-11.72  5.222-14.21Q 6.932-16.7  7.962-20.12Q 8.982-23.54  8.982-27.44L 8.982-27.44Q 8.982-31.25  8.052-34.67Q 7.132-38.09  5.522-40.72Q 3.902-43.36  1.562-44.92Q-0.778-46.48 -3.708-46.48L-3.708-46.48Q-6.248-46.48 -8.348-45.46Q-10.448-44.43 -12.108-42.48L-12.108-42.48L-12.108-52.93Q-9.868-54.2 -7.128-54.88Q-4.398-55.57 -1.468-55.57L-1.468-55.57Q 1.762-55.57  5.082-54.69Q 8.402-53.81  11.282-51.76Q 14.162-49.71  16.552-46.39Q 18.942-43.07  20.212-38.38ZM 44.24-16.6L 44.24-16.6Q 44.24-12.21  46.05-10.06Q 47.85-7.91  51.27-7.52L 51.27-7.52L 51.27 0.39Q 50.88 0.49  50 0.49L 50 0.49Q 46.68 0.49  43.6-0.39Q 40.53-1.27  38.18-3.22Q 35.84-5.18  34.52-8.4Q 33.2-11.62  33.2-16.31L 33.2-16.31Q 33.2-20.8  35.11-24.07Q 37.01-27.34  39.99-29.44Q 42.97-31.54  46.78-32.57Q 50.59-33.59  54.49-33.59L 54.49-33.59L 58.79-33.59L 58.79-26.66L 56.64-26.66Q 54.69-26.66  52.54-26.27Q 50.39-25.88  48.54-24.8Q 46.68-23.73  45.46-21.73Q 44.24-19.73  44.24-16.6ZM 74.61-17.09L 74.61-16.31Q 74.61-15.53  74.71-14.01Q 74.81-12.5  75.1-10.94Q 75.39-9.38  76.03-8.11Q 76.66-6.84  77.73-6.45L 77.73-6.45L 74.61 0.1Q 73.34 0.1  71.92-0.49Q 70.51-1.07  69.19-2.15Q 67.87-3.22  66.94-4.54Q 66.02-5.86  65.53-7.42L 65.53-7.42Q 64.55-4.98  61.67-3.08Q 58.79-1.17  55.27-0.29L 55.27-0.29L 55.27-7.71Q 57.62-8.2  59.52-9.62Q 61.43-11.04  62.79-12.99L 62.79-12.99L 62.79-33.59Q 62.79-38.38  62.31-41.21Q 61.82-44.04  60.65-45.36Q 59.47-46.68  57.76-47.02Q 56.06-47.36  53.71-47.36L 53.71-47.36Q 51.56-47.36  49.66-46.83Q 47.75-46.29  46.14-45.56Q 44.53-44.82  43.31-43.95Q 42.09-43.07  41.5-42.58L 41.5-42.58L 37.11-49.32Q 38.09-50.39  40.04-51.51Q 41.99-52.64  44.53-53.52Q 47.07-54.39  50.05-54.93Q 53.03-55.47  56.25-55.47L 56.25-55.47Q 59.18-55.47  61.96-54.88Q 64.75-54.3  67.04-52.93Q 69.34-51.56  71.05-49.27Q 72.75-46.97  73.44-43.55L 73.44-43.55Q 74.12-40.14  74.37-36.67Q 74.61-33.2  74.61-29.79L 74.61-29.79L 74.61-17.09ZM 104.983-75.88L 104.983-16.8Q 104.983-13.48  105.863-11.57Q 106.743-9.67  108.303-8.74Q 109.863-7.81  111.863-7.52Q 113.863-7.23  116.213-7.23L 116.213-7.23L 116.213 0Q 114.943 0.2  113.573 0.29L 113.573 0.29Q 112.503 0.39  111.033 0.44Q 109.573 0.49  108.103 0.49L 108.103 0.49Q 106.643 0.49  105.173 0.39Q 103.713 0.29  102.543 0.1L 102.543 0.1Q 99.223-0.59  97.363-2.83Q 95.503-5.08  94.533-7.86Q 93.553-10.64  93.313-13.28Q 93.063-15.92  93.063-17.38L 93.063-17.38L 93.063-18.55L 93.063-75.88L 104.983-75.88ZM 140.433-75.88L 140.433-16.8Q 140.433-13.48  141.313-11.57Q 142.192-9.67  143.752-8.74Q 145.313-7.81  147.313-7.52Q 149.313-7.23  151.662-7.23L 151.662-7.23L 151.662 0Q 150.392 0.2  149.023 0.29L 149.023 0.29Q 147.952 0.39  146.483 0.44Q 145.023 0.49  143.553 0.49L 143.553 0.49Q 142.093 0.49  140.623 0.39Q 139.162 0.29  137.993 0.1L 137.993 0.1Q 134.673-0.59  132.813-2.83Q 130.952-5.08  129.982-7.86Q 129.002-10.64  128.762-13.28Q 128.512-15.92  128.512-17.38L 128.512-17.38L 128.512-18.55L 128.512-75.88L 140.433-75.88ZM 189.742-46.39L 189.742-55.57Q 195.022-55.08  199.272-52.73Q 203.512-50.39  206.542-46.68Q 209.572-42.97  211.182-38.18Q 212.792-33.4  212.792-28.22L 212.792-28.22Q 212.792-25.88  212.502-23.54L 212.502-23.54L 179.002-23.54L 179.002-32.13L 201.562-32.13Q 201.562-34.67  200.732-37.01Q 199.902-39.36  198.292-41.36Q 196.682-43.36  194.532-44.73Q 192.382-46.09  189.742-46.39L 189.742-46.39ZM 189.352-9.18L 189.352-9.18Q 190.432-9.18  192.042-9.42Q 193.652-9.67  195.462-10.3Q 197.262-10.94  199.072-11.91Q 200.882-12.89  202.242-14.26L 202.242-14.26L 206.542-7.71Q 203.322-3.71  199.022-1.66Q 194.722 0.39  188.082 0.39L 188.082 0.39Q 182.712 0.39  178.032-1.81Q 173.342-4  170.022-7.81Q 166.702-11.62  164.742-16.7Q 162.792-21.78  162.792-27.64L 162.792-27.64Q 162.792-33.2  164.602-38.18Q 166.402-43.16  169.532-46.92Q 172.652-50.68  176.802-53.03Q 180.962-55.37  185.742-55.66L 185.742-55.66L 185.742-46.29Q 182.132-45.61  179.782-43.36Q 177.442-41.11  176.122-38.23Q 174.802-35.35  174.272-32.32Q 173.732-29.3  173.732-27.15L 173.732-27.15Q 173.732-23.34  174.662-20.07Q 175.582-16.8  177.542-14.4Q 179.492-12.01  182.372-10.6Q 185.252-9.18  189.352-9.18ZM 229.005-55.08L 239.555-55.08L 240.815-49.41L 240.815-19.53L 240.815-19.34L 240.815 0L 229.005 0L 229.005-55.08ZM 244.825-42.68L 244.825-52.64Q 247.265-54  250.685-54.74Q 254.105-55.47  259.965-55.47L 259.965-55.47L 259.965-43.16Q 257.225-43.95  253.315-44.04L 253.315-44.04Q 251.175-44.04  248.975-43.7Q 246.775-43.36  244.825-42.68L 244.825-42.68Z"></path><path text="CV" text-anchor="middle" font-size="100" letter-spacing="0" side="left" offset="0.5" dx="0" dy="0" space="preserve" href="" font-family="Allerta Stencil" font-scale="contain" transform="matrix(0.6109329462051392, 0, 0, 0.6109329462051392, 255.8209228515625, 231.95864868164062)" x="0" y="0" fill="#ffffff" data-fl-textpath="" id="_sUAF9oxi8s94PJvL-H_qM" d="M-11.333-65.33L-19.433-58.11Q-21.683-60.64 -24.223-61.91Q-26.753-63.18 -29.683-63.38L-29.683-63.38L-29.683-73.05Q-18.753-72.56 -11.333-65.33L-11.333-65.33ZM-29.683 0.49L-29.683-9.18Q-26.753-9.47 -24.173-10.74Q-21.583-12.01 -19.433-14.45L-19.433-14.45L-11.333-7.32Q-15.043-3.71 -19.633-1.76Q-24.223 0.2 -29.683 0.49L-29.683 0.49ZM-61.333-36.33L-61.333-36.33Q-61.333-45.02 -59.233-51.66Q-57.133-58.3 -53.413-62.89Q-49.703-67.48 -44.673-70.02Q-39.653-72.56 -33.693-73.05L-33.693-73.05L-33.693-63.28Q-36.913-62.79 -39.743-61.08Q-42.583-59.38 -44.723-56.15Q-46.873-52.93 -48.093-48Q-49.313-43.07 -49.413-36.33L-49.413-36.33Q-49.313-29.49 -48.093-24.61Q-46.873-19.73 -44.723-16.41Q-42.583-13.09 -39.693-11.33Q-36.813-9.57 -33.693-9.18L-33.693-9.18L-33.693 0.39Q-39.653 0 -44.673-2.54Q-49.703-5.08 -53.413-9.67Q-57.133-14.26 -59.233-20.95Q-61.333-27.64 -61.333-36.33ZM 24.704 0.39L 2.344-71.97L 15.724-71.97L 30.864-15.53L 30.864 0.39L 24.704 0.39ZM 34.864-18.65L 50.094-71.97L 63.374-71.97L 39.944 0.39L 34.864 0.39L 34.864-18.65Z"></path></svg>